P2
# Plik PGM przykładowy
4 3
255
0 0 3 250 240 203 100 155 177 190 200 230
